@startuml Construction_company
'Автор: Лисняк А.В. 

!function $autogenerated($a)
!return "<color:RoyalBlue>" + $a + " << PK>></color>"
!endfunction

!function $setBold($a)
!return "<b>" + $a + " </b>"
!endfunction

skinparam BackgroundColor SeaShell
skinparam LegendBackgroundColor MistyRose
skinparam LegendBorderColor PaleVioletRed
skinparam LegendFontColor PaleVioletRed

skinparam Class {
    HeaderBackgroundColor PaleGreen
}

Header Пример ER-диаграммы
Title ER-diagram "Chemical laboratory"

entity "$setBold("Scientist")" as scientist {
    * $autogenerated("id : integer")
    ..
    * name : varchar(255)
    * surname : varchar(255)
    * patronimyc : varchar(255)
    * email : varchar(255)
    * birth_date : date
    * salary : money
    * position : varchar(255)
}

entity "$setBold("Experiment")" as experiment {
    * $autogenerated("id : integer")
    ..
    * status_id : int 
    * description : varchar(255)
    * created_at : timestamp
    * priority : integer
}

entity "$setBold("ScientistExperiment")" as scientistExperiment {
    * scientist_id : integer
    * experiment_id : integer
    ..
}

entity "$setBold("Result")" as result {
    * $autogenerated("id : integer")
    ..
    * date : timestamp
    * status : varchar(255)
    * comments : varchar(255)
}

scientist --o scientistExperiment : participates in
experiment --o scientistExperiment : involves
experiment --o{ result : assigned to

legend right
$setBold("Условные обозначения:")
* - обязательное поле
PK - первичный ключ
end legend

footer Lisnyak Alexandra, 2024

@enduml
