@startuml

'Автор: Лисняк А.В.

!function $autogenerated($a)
!return "<color:RoyalBlue>" + $a + " << PK>></color>"
!endfunction

!function $setBold($a)
!return "<b>" + $a + " </b>"
!endfunction

skinparam BackgroundColor SeaShell
skinparam LegendBackgroundColor MistyRose
skinparam LegendBorderColor PaleVioletRed
skinparam LegendFontColor PaleVioletRed

skinparam Class {
    HeaderBackgroundColor PaleGreen
}

skinparam TitleFontColor Sienna

Header Пример ER-диаграммы
Title ER-diagram "Clothing_store"

entity "$setBold("Client")" as client {
    * $autogenerated("id : integer")
    ..
    * name : varchar(255)
    * surname : varchar(255)
    * patronimyc : varchar(255)
    * email : varchar(255)
    * birth_date : date
    * discount_card : integer
}

entity "$setBold("Product")" as product {
    * $autogenerated("id : integer")
    ..
    * size : varchar(255) 
    * price : money
}

entity "$setBold("Order")" as order {
    * $autogenerated("id : integer")
    ..
    * date_of_creation : timestamp
    * status : varchar(255)
    * comments : varchar(255)
}

entity "$setBold("OrderProduct")" as orderProduct {
    * order_id : integer <<FK>>
    * product_id : integer <<FK>>
    ..
    * quantity : integer
}

client --o{ order
order }o--o{ orderProduct
product }o--o{ orderProduct

legend right
$setBold("Условные обозначения:")
* - обязательное поле
PK - первичный ключ
FK - внешний ключ
end legend

footer Лисняк Александра, 2024

@enduml
